<?xml version="1.0" standalone="no"?>
<!DOCTYPE svg PUBLIC "-//W3C//DTD SVG 20010904//EN"
 "http://www.w3.org/TR/2001/REC-SVG-20010904/DTD/svg10.dtd">
<svg version="1.0" xmlns="http://www.w3.org/2000/svg"
 width="500.000000pt" height="500.000000pt" viewBox="0 0 500.000000 500.000000"
 preserveAspectRatio="xMidYMid meet">

<g transform="translate(0.000000,500.000000) scale(0.100000,-0.100000)"
fill="#000000" stroke="none">
<path d="M2547 4245 c-19 -18 -20 -21 -107 -340 -39 -143 -73 -266 -76 -274
-4 -11 -7 -11 -22 1 -53 48 -146 62 -213 34 -172 -72 -169 -318 3 -390 93 -39
217 5 262 93 8 14 51 161 96 326 46 165 86 304 91 309 4 5 19 -1 34 -12 14
-11 39 -24 55 -27 48 -11 80 -58 80 -119 0 -58 12 -76 51 -76 35 0 48 17 55
72 5 34 1 57 -15 94 -30 66 -56 92 -121 121 -72 32 -89 55 -90 120 0 73 -43
108 -83 68z"/>
<path d="M3484 3994 c-31 -42 -77 -111 -102 -153 l-47 -76 -6 -140 c-3 -77
-11 -153 -18 -169 -6 -16 -49 -80 -96 -141 -123 -165 -254 -362 -281 -423 -13
-29 -24 -66 -24 -83 0 -34 38 -79 68 -79 20 0 64 30 95 65 40 46 167 285 282
529 38 80 86 125 194 181 56 29 103 61 121 83 41 50 163 290 156 308 -15 40
-43 11 -131 -136 -61 -103 -95 -150 -107 -150 -32 0 -20 30 67 173 47 77 85
147 83 156 -2 9 -12 16 -22 16 -15 0 -43 -39 -107 -145 -81 -134 -108 -166
-123 -142 -3 5 35 78 85 161 50 84 88 159 85 167 -15 39 -43 10 -130 -136 -82
-140 -105 -166 -121 -139 -4 5 34 78 83 161 50 83 88 157 85 164 -13 33 -35
21 -89 -52z"/>
<path d="M1332 3993 c-85 -42 -128 -149 -97 -242 33 -100 105 -175 228 -238
104 -52 142 -97 217 -258 198 -426 304 -561 380 -485 61 61 -8 196 -292 577
-93 125 -100 143 -108 303 -6 125 -9 140 -39 200 -18 36 -46 79 -63 97 -55 57
-160 79 -226 46z"/>
<path d="M2592 3638 c-18 -18 -16 -35 33 -221 25 -95 45 -176 45 -180 0 -4
-16 -7 -36 -7 -73 0 -124 -55 -124 -133 0 -57 34 -101 90 -118 47 -14 79 -7
119 27 59 49 59 76 2 295 -28 108 -51 199 -51 202 0 9 103 8 115 -1 6 -4 18
-19 28 -34 36 -57 83 -19 52 41 -23 45 -61 66 -120 67 -67 0 -87 8 -107 44
-19 33 -28 36 -46 18z"/>
<path d="M2725 2430 c-3 -11 -15 -20 -25 -20 -11 0 -24 -9 -30 -19 -14 -26
-13 -31 6 -31 24 0 12 -35 -14 -38 -12 -2 -22 -9 -22 -15 0 -9 -2 -9 -8 -1 -4
7 -18 14 -32 15 -18 3 -28 -3 -37 -21 -20 -38 -13 -64 18 -68 22 -3 27 2 32
26 6 30 6 30 99 36 51 4 106 9 121 12 26 5 28 4 25 -23 -3 -24 1 -28 23 -31
23 -3 27 1 32 30 3 18 8 40 12 50 6 14 2 15 -27 9 -38 -8 -144 -6 -140 3 1 3
2 10 2 15 0 5 12 11 27 13 32 4 45 48 14 48 -11 0 -21 4 -23 9 -1 4 -13 11
-25 15 -16 5 -23 2 -28 -14z"/>
<path d="M3494 2333 c-65 -53 -122 -101 -126 -107 -13 -20 -9 -38 8 -32 8 3
12 2 9 -4 -14 -23 11 -7 64 42 l56 51 6 -114 c3 -63 6 -109 7 -102 1 6 11 9
21 6 17 -4 20 4 26 103 5 68 4 113 -3 124 -8 13 1 23 50 54 32 21 57 39 56 40
-2 1 -15 9 -29 18 -25 16 -27 15 -145 -79z"/>
<path d="M3708 2270 c-3 -106 -1 -160 7 -172 10 -15 12 -15 24 5 8 11 16 49
19 84 5 72 5 72 95 48 80 -21 90 -20 81 8 -9 30 -3 27 -90 41 l-77 12 2 66 2
67 -29 -2 -30 -2 -4 -155z"/>
<path d="M1810 2359 c-7 -33 -20 -64 -29 -70 -12 -7 -13 -12 -4 -15 14 -6 7
-112 -8 -128 -20 -22 -6 -34 54 -45 34 -7 91 -13 126 -14 62 -2 64 -1 72 26
l7 27 -100 0 -101 0 7 62 c3 34 8 63 10 65 2 2 47 7 101 11 l97 7 24 41 25 42
-33 19 c-63 37 -65 36 -100 -22 -30 -51 -36 -55 -69 -55 l-37 0 13 50 c7 28
12 51 12 51 -1 1 -14 3 -28 4 -25 3 -27 0 -39 -56z m219 2 c10 -7 11 -13 1
-31 -10 -19 -14 -20 -26 -8 -8 8 -12 22 -8 31 7 19 13 21 33 8z"/>
<path d="M1111 2388 c-4 -13 -13 -70 -20 -128 -6 -58 -16 -106 -21 -108 -13
-5 -13 -49 0 -57 11 -7 161 27 232 52 27 10 49 24 51 35 6 22 14 22 -112 -2
-58 -11 -105 -19 -106 -17 -1 1 7 50 18 109 17 92 18 108 6 120 -23 21 -39 20
-48 -4z"/>
<path d="M2332 2363 l-48 -48 1 -85 c0 -85 0 -85 25 -83 24 1 25 -2 22 -34 -3
-27 -1 -34 8 -28 7 4 16 2 20 -5 5 -9 11 4 15 34 7 45 9 48 34 43 14 -2 33 -7
42 -11 13 -6 18 1 23 31 9 46 28 93 39 93 16 0 -23 58 -57 84 -20 15 -35 32
-33 39 1 6 -8 13 -20 15 -16 2 -36 -10 -71 -45z m88 -34 c10 -17 7 -19 -31
-19 l-42 0 23 25 c25 26 34 25 50 -6z m-53 -72 c-4 -14 -57 -16 -57 -1 0 17 9
21 36 16 14 -2 23 -9 21 -15z m103 6 c0 -5 -14 -9 -30 -10 -17 -1 -30 2 -30 7
0 6 14 10 30 10 17 0 30 -3 30 -7z m-40 -58 c0 -8 -9 -15 -20 -15 -22 0 -27
15 -7 23 21 9 27 7 27 -8z m-88 -17 c-7 -7 -12 -8 -12 -2 0 6 3 14 7 17 3 4 9
5 12 2 2 -3 -1 -11 -7 -17z"/>
<path d="M3050 2370 c0 -33 -4 -40 -20 -41 -35 -2 -40 -4 -37 -10 1 -3 -5 -14
-12 -23 -14 -17 -12 -17 32 -11 l47 7 0 -33 c0 -19 3 -44 6 -56 5 -19 10 -21
25 -12 14 7 19 21 19 54 0 29 4 45 13 45 6 0 23 3 36 7 l24 6 -7 -74 c-4 -41
-9 -91 -12 -111 -5 -42 13 -61 30 -32 6 10 20 62 31 114 l20 95 43 3 c38 3 42
5 30 19 -7 9 -13 19 -13 22 0 3 -4 6 -10 7 -5 0 -16 2 -23 2 -7 1 -11 6 -8 11
3 5 -2 19 -12 32 -24 29 -50 20 -58 -20 -5 -25 -11 -30 -45 -33 -38 -3 -39 -3
-39 28 0 31 -13 44 -46 44 -10 0 -14 -12 -14 -40z"/>
<path d="M1434 2375 c-7 -18 16 -39 56 -53 19 -6 29 -4 43 10 17 18 17 19 -15
32 -65 27 -78 28 -84 11z"/>
<path d="M2189 2323 c-5 -16 -12 -34 -14 -40 -2 -7 -15 -13 -29 -13 -22 0 -36
-16 -36 -41 0 -5 7 -9 16 -9 11 0 14 -5 9 -17 -26 -66 -28 -75 -12 -91 15 -14
17 -14 26 9 9 23 10 23 10 2 1 -23 16 -32 44 -25 11 3 17 14 17 36 0 22 3 27
9 17 8 -12 13 -12 24 -3 17 14 11 61 -9 69 -20 8 -17 23 5 23 28 0 36 31 10
37 -18 5 -20 11 -14 39 5 31 4 34 -20 34 -19 0 -28 -7 -36 -27z"/>
<path d="M1396 2275 c-4 -12 6 -21 36 -34 42 -17 43 -17 59 3 17 20 16 21 -14
33 -45 16 -74 16 -81 -2z"/>
<path d="M2663 2245 l-33 -34 27 -20 c14 -12 30 -21 35 -21 5 0 6 -4 3 -10 -3
-5 -17 -10 -31 -10 -13 0 -24 -6 -24 -12 0 -23 18 -41 34 -35 13 5 16 -1 16
-29 0 -31 3 -35 22 -32 14 2 25 14 33 36 10 33 45 65 45 42 0 -5 12 -10 26
-10 22 0 25 3 20 23 -3 12 -6 28 -6 35 0 6 -9 12 -20 12 -11 0 -20 -4 -20 -10
0 -5 -8 -10 -17 -10 -14 0 -13 3 5 23 28 29 28 44 0 53 -16 5 -27 1 -39 -15
-9 -11 -20 -21 -23 -21 -12 0 -6 28 9 40 22 18 18 40 -7 40 -13 0 -37 -16 -55
-35z"/>
<path d="M1630 2221 c-135 -44 -220 -82 -220 -97 0 -8 6 -14 14 -14 8 0 16 -5
18 -11 2 -6 42 6 98 28 110 45 160 72 160 89 0 7 6 14 13 17 6 2 10 7 7 10 -3
3 -43 -7 -90 -22z"/>
<path d="M2390 2140 c0 -23 25 -60 41 -60 27 0 32 17 12 45 -18 24 -53 34 -53
15z"/>
<path d="M2629 2078 c-7 -14 -8 -23 -1 -30 15 -15 38 -4 44 20 8 29 -29 37
-43 10z"/>
<path d="M2770 2074 c0 -20 4 -25 22 -22 13 2 22 12 24 26 3 18 -1 22 -21 22
-20 0 -25 -5 -25 -26z"/>
<path d="M1206 1830 c-18 -18 -18 -19 15 -40 33 -20 121 -50 185 -64 33 -7 56
10 68 51 6 20 2 22 -66 33 -40 6 -96 18 -125 26 -61 17 -54 17 -77 -6z"/>
<path d="M2356 1829 c-12 -9 -30 -33 -41 -52 -17 -32 -24 -36 -72 -42 -60 -7
-72 -22 -54 -62 9 -21 17 -24 41 -21 17 3 30 2 30 -2 0 -3 -4 -31 -9 -61 -23
-135 -23 -135 5 -154 35 -23 84 -29 84 -10 0 19 27 32 89 46 116 25 171 -40
126 -148 -9 -20 -12 -40 -7 -45 4 -4 28 -10 52 -13 43 -5 46 -4 68 31 49 78
47 173 -4 213 -53 42 -136 46 -282 15 -25 -5 -31 -3 -28 7 2 8 10 42 16 76 14
71 11 69 123 79 l77 6 -3 37 -4 36 -72 -4 -71 -3 10 27 c18 48 13 64 -21 63
-16 -1 -40 -9 -53 -19z"/>
<path d="M1787 1782 c-72 -77 -222 -351 -234 -429 -6 -32 -5 -33 31 -33 23 0
39 -5 42 -15 15 -39 54 0 83 85 28 80 47 110 67 110 13 0 15 -6 10 -27 -3 -16
-9 -54 -12 -85 -7 -56 -6 -57 27 -78 43 -27 109 -21 225 22 71 25 83 33 87 56
3 15 2 29 -2 32 -4 3 -13 20 -20 38 -8 17 -15 32 -16 32 -1 0 -41 -18 -89 -40
-47 -22 -88 -40 -91 -40 -2 0 6 26 17 58 26 70 20 106 -19 120 -16 5 -43 7
-61 4 -17 -2 -32 -2 -32 2 0 3 21 48 47 100 26 53 45 98 42 100 -3 3 -21 8
-41 10 -29 4 -40 0 -61 -22z"/>
<path d="M3541 1791 c-33 -33 -109 -146 -154 -231 -43 -79 -97 -208 -97 -230
0 -6 15 -10 34 -10 19 0 42 -7 50 -15 12 -12 20 -14 36 -5 11 6 20 15 20 19 0
5 14 45 31 90 21 55 37 82 50 86 11 4 22 5 24 3 2 -2 -3 -30 -11 -63 -34 -148
43 -177 261 -99 64 23 75 30 70 45 -4 11 -2 19 4 19 6 0 11 5 11 10 0 6 -7 10
-15 10 -9 0 -15 9 -15 23 -1 53 -13 54 -106 9 -48 -23 -89 -40 -91 -38 -2 2 3
21 12 42 17 42 22 94 11 113 -14 22 -56 32 -92 22 -19 -5 -34 -7 -34 -5 0 2
22 49 50 104 30 59 46 102 40 105 -25 16 -72 13 -89 -4z"/>
<path d="M3085 1730 c-4 -6 -19 -9 -33 -8 -23 3 -30 -4 -50 -42 -21 -42 -39
-58 -69 -59 -7 -1 -13 5 -13 13 0 8 -13 16 -30 18 -28 4 -31 1 -42 -33 -7 -26
-19 -41 -39 -49 -37 -16 -60 -42 -50 -58 6 -10 15 -10 35 -2 15 5 29 10 30 10
2 0 6 -30 10 -67 7 -79 21 -130 41 -157 16 -21 35 -13 35 15 0 14 7 19 25 19
29 0 30 6 11 92 -28 126 -28 135 -6 141 15 4 20 0 20 -16 0 -43 13 -50 53 -30
21 10 37 26 37 36 0 25 37 22 51 -4 9 -17 8 -32 -2 -63 -19 -58 -18 -61 20
-58 21 2 31 0 27 -6 -11 -19 8 -20 38 -3 46 26 70 115 45 164 -18 36 -51 56
-101 63 -53 7 -54 8 -33 44 8 14 14 31 15 38 0 15 -16 16 -25 2z"/>
<path d="M1187 1505 c-25 -17 -40 -38 -48 -65 -11 -36 -10 -44 8 -68 34 -45
76 -63 170 -72 71 -7 92 -5 111 7 13 8 21 21 18 28 -3 8 0 16 7 19 9 5 8 8 -2
12 -9 5 -10 8 -2 14 7 3 9 14 6 22 -5 13 -27 17 -112 20 -87 2 -107 6 -118 21
-10 14 -11 26 -3 48 6 17 8 32 6 34 -2 3 -21 -7 -41 -20z"/>
<path d="M1113 1030 c-4 -15 -14 -20 -39 -20 -18 0 -36 -5 -40 -11 -8 -14 14
-29 44 -29 33 0 27 -26 -13 -61 -28 -25 -35 -38 -35 -69 0 -47 19 -64 62 -56
18 4 42 8 53 10 12 1 22 13 26 27 19 82 51 113 68 67 12 -33 2 -57 -31 -74
-16 -8 -27 -21 -25 -27 7 -23 37 -18 67 11 63 64 26 152 -65 152 -32 0 -45 4
-45 14 0 10 13 16 38 18 48 4 52 32 5 36 -21 2 -33 9 -33 18 0 22 -31 17 -37
-6z m50 -130 c-3 -11 -9 -20 -14 -20 -5 0 -9 9 -9 20 0 11 6 20 14 20 9 0 12
-7 9 -20z m-51 -30 c0 -11 1 -25 2 -31 1 -16 -42 -31 -50 -18 -9 15 16 69 32
69 8 0 15 -9 16 -20z"/>
<path d="M1488 1028 c-2 -17 -12 -24 -33 -28 -35 -6 -41 -33 -8 -38 20 -3 22
-6 12 -25 -6 -12 -21 -32 -32 -45 -16 -17 -18 -25 -9 -34 16 -16 56 22 79 74
9 21 25 40 35 44 22 7 24 30 3 38 -8 3 -15 12 -15 21 0 24 -28 18 -32 -7z"/>
<path d="M1867 1044 c-4 -4 -7 -18 -7 -30 0 -17 -7 -23 -27 -26 -38 -4 -45
-38 -9 -38 33 0 33 -14 0 -96 -26 -67 -26 -81 0 -71 18 7 43 64 57 129 8 36
15 47 32 50 29 4 36 38 8 38 -12 0 -21 8 -23 22 -3 22 -19 33 -31 22z"/>
<path d="M3797 1043 c-4 -3 -7 -15 -7 -25 0 -13 -8 -18 -30 -18 -35 0 -43 -29
-10 -37 26 -7 25 -15 -6 -52 -25 -30 -27 -61 -4 -61 13 0 70 79 70 97 0 7 11
19 25 25 27 12 34 38 10 38 -8 0 -15 9 -15 20 0 19 -20 27 -33 13z"/>
<path d="M3432 1031 c-9 -5 -12 -40 -10 -127 3 -104 5 -119 21 -122 15 -3 17
5 17 62 0 36 3 66 6 66 3 0 18 -8 32 -18 45 -31 49 -32 62 -17 9 11 4 20 -31
45 -24 17 -49 28 -56 26 -9 -4 -13 7 -13 39 0 46 -8 59 -28 46z"/>
<path d="M2204 1018 c-11 -17 -18 -171 -10 -202 3 -14 13 -26 21 -26 12 0 15
17 15 89 0 49 3 103 6 120 5 24 3 31 -9 31 -9 0 -19 -5 -23 -12z"/>
<path d="M2762 1008 c6 -16 36 -34 44 -25 9 9 -15 37 -33 37 -8 0 -13 -5 -11
-12z"/>
<path d="M2981 1007 c-16 -21 -3 -27 55 -27 29 0 56 -5 59 -10 11 -17 -44 -80
-97 -113 -49 -30 -63 -57 -30 -57 20 0 54 21 95 59 l27 25 43 -42 c72 -71 96
-48 25 25 -38 39 -41 44 -29 66 19 35 10 70 -19 78 -44 12 -117 10 -129 -4z"/>
<path d="M1570 985 c0 -16 66 -48 81 -39 16 10 9 23 -21 39 -37 19 -60 19 -60
0z"/>
<path d="M2275 990 c-13 -21 7 -28 73 -27 52 2 67 5 67 17 0 12 -15 16 -67 18
-38 2 -69 -1 -73 -8z"/>
<path d="M3875 990 c-6 -10 51 -50 73 -50 22 0 12 37 -13 48 -32 15 -52 15
-60 2z"/>
<path d="M2740 970 c10 -19 40 -28 40 -12 0 13 -23 32 -37 32 -11 0 -11 -5 -3
-20z"/>
<path d="M2598 944 c-45 -23 -58 -41 -41 -57 3 -4 25 4 49 18 23 14 49 25 57
25 9 0 46 -25 82 -55 37 -30 71 -55 76 -55 18 0 20 23 3 42 -36 39 -136 108
-157 108 -12 -1 -43 -12 -69 -26z"/>
<path d="M1927 944 c-4 -4 -7 -14 -7 -21 0 -11 14 -13 58 -11 43 2 57 7 57 18
0 11 -14 16 -50 18 -28 2 -54 0 -58 -4z"/>
<path d="M1550 901 c0 -38 -2 -40 -32 -43 -28 -2 -34 -8 -36 -31 -7 -56 50
-77 94 -36 18 17 26 19 42 10 28 -15 32 -14 32 8 0 11 -12 23 -29 31 -25 10
-30 18 -33 53 -2 30 -8 43 -20 45 -15 3 -18 -4 -18 -37z m-2 -83 c-3 -7 -11
-13 -18 -13 -7 0 -15 6 -17 13 -3 7 4 12 17 12 13 0 20 -5 18 -12z"/>
<path d="M3858 903 c-2 -32 -7 -39 -28 -41 -34 -5 -50 -20 -50 -48 0 -45 77
-61 105 -22 13 20 18 21 35 10 21 -13 40 -9 40 9 0 5 -16 19 -35 30 -30 18
-35 26 -35 60 0 53 -28 54 -32 2z m-10 -84 c-2 -6 -8 -10 -13 -10 -5 0 -11 4
-13 10 -2 6 4 11 13 11 9 0 15 -5 13 -11z"/>
<path d="M2265 870 c-12 -20 24 -59 61 -66 44 -8 99 7 99 26 0 12 -11 14 -52
12 -44 -3 -54 -1 -65 17 -14 23 -33 27 -43 11z"/>
<path d="M1900 837 c0 -38 87 -70 129 -48 31 17 16 31 -33 31 -27 0 -48 6 -56
15 -15 19 -40 20 -40 2z"/>
<path d="M1653 600 c-4 -15 -14 -20 -40 -20 -44 0 -40 -24 5 -28 35 -4 45 -22
12 -22 -13 0 -24 -10 -30 -26 -12 -31 -13 -154 -1 -173 13 -21 31 -4 31 30 0
39 24 34 28 -5 2 -18 8 -26 17 -23 7 3 16 2 21 -3 5 -4 24 -6 42 -3 26 4 37
14 53 46 l21 40 18 -42 c11 -22 26 -41 35 -41 21 0 19 10 -10 68 -14 28 -25
62 -25 76 0 21 5 26 25 26 16 0 25 6 25 15 0 10 -10 15 -30 15 -24 0 -30 4
-30 22 0 20 1 21 20 3 24 -21 35 -15 25 14 -3 12 -15 21 -26 21 -10 0 -19 7
-19 15 0 8 -7 15 -15 15 -11 0 -15 -12 -15 -45 0 -38 -3 -45 -20 -45 -11 0
-20 -7 -20 -15 0 -8 9 -15 20 -15 19 0 20 -4 14 -37 -4 -21 -12 -49 -17 -63
-10 -22 -12 -17 -17 40 -6 74 -13 90 -41 90 -32 0 -21 18 13 22 45 4 49 28 5
28 -26 0 -36 5 -40 20 -3 11 -10 20 -17 20 -7 0 -14 -9 -17 -20z m27 -115 c0
-8 -4 -15 -9 -15 -5 0 -11 7 -15 15 -3 9 0 15 9 15 8 0 15 -7 15 -15z m-25
-65 c-3 -5 -10 -10 -16 -10 -5 0 -9 5 -9 10 0 6 7 10 16 10 8 0 12 -4 9 -10z
m55 0 c0 -5 -4 -10 -10 -10 -5 0 -10 5 -10 10 0 6 5 10 10 10 6 0 10 -4 10
-10z m0 -44 c0 -16 -18 -31 -27 -22 -8 8 5 36 17 36 5 0 10 -6 10 -14z"/>
<path d="M2107 613 c-4 -3 -7 -17 -7 -29 0 -21 -5 -23 -57 -26 -44 -2 -58 -7
-58 -18 0 -13 21 -15 130 -15 109 0 130 2 130 15 0 11 -14 16 -52 18 -44 3
-53 6 -53 21 0 21 -23 44 -33 34z"/>
<path d="M3187 584 c-4 -4 -7 -47 -7 -95 0 -103 13 -127 75 -136 50 -6 110 9
110 28 0 11 -13 13 -58 11 -64 -4 -87 7 -87 44 0 20 9 25 61 40 56 16 81 35
65 51 -3 3 -25 1 -48 -6 -24 -7 -51 -14 -60 -17 -14 -4 -17 3 -20 37 -3 40
-16 58 -31 43z"/>
<path d="M2800 566 c0 -15 50 -56 69 -56 22 0 10 36 -18 53 -35 21 -51 22 -51
3z"/>
<path d="M3364 555 c-8 -21 2 -45 19 -45 20 0 40 27 33 45 -7 19 -45 20 -52 0z
m36 -15 c0 -5 -4 -10 -9 -10 -6 0 -13 5 -16 10 -3 6 1 10 9 10 9 0 16 -4 16
-10z"/>
<path d="M2394 545 c-10 -25 1 -144 14 -157 19 -19 78 -10 140 21 70 35 88 53
69 69 -10 9 -22 5 -50 -14 -54 -36 -112 -55 -126 -41 -6 6 -11 39 -11 74 0 50
-3 63 -15 63 -9 0 -18 -7 -21 -15z"/>
<path d="M2941 486 c-24 -25 -70 -59 -102 -76 -58 -31 -69 -43 -48 -55 30 -19
228 124 217 157 -8 24 -25 17 -67 -26z"/>
<path d="M2767 513 c-13 -12 -7 -21 28 -43 33 -20 55 -20 55 1 0 9 -58 49 -71
49 -3 0 -9 -3 -12 -7z"/>
<path d="M2035 501 c-8 -13 14 -92 31 -110 22 -24 29 14 13 67 -14 45 -31 62
-44 43z"/>
<path d="M2141 440 l-22 -70 -74 0 c-60 0 -75 -3 -75 -15 0 -13 23 -15 145
-15 122 0 145 2 145 15 0 11 -12 15 -51 15 -48 0 -50 1 -43 23 25 76 32 106
27 111 -18 18 -33 -1 -52 -64z"/>
</g>
</svg>
